<svg width="145" height="46" viewBox="0 0 145 46" fill="none" xmlns="http://www.w3.org/2000/svg">
<path d="M7.3894 45.1718C3.58441 45.1718 0.5 42.0874 0.5 38.2824C0.5 34.1504 3.84966 30.8008 7.98167 30.8008H14.2788V38.2824C14.2793 42.087 11.1944 45.1718 7.3894 45.1718Z" fill="#FBBB00"/>
<path d="M36.5 15.9059C36.5 22.5621 32.7175 28.2981 25.288 30.1568C23.6357 30.5757 21.8062 30.8003 19.8 30.8003H14.3418V16.6375H14.3006C14.3006 16.6375 14.2948 16.6375 14.2886 16.6375C13.84 16.5843 13.3856 16.5609 12.9255 16.5609C6.46366 16.5609 1.1586 21.4944 0.5625 27.7906V7.16978C0.5625 3.66739 3.40176 0.828613 6.90415 0.828613H19.8005C30.8463 0.828613 36.5 7.03045 36.5 15.9059Z" fill="#FBBB00"/>
<path d="M46.756 7.2H54.192V38H46.756V7.2ZM51.42 13.316V7.2H57.448C60.0587 7.2 62.244 7.61066 64.004 8.432C65.7933 9.224 67.1427 10.368 68.052 11.864C68.9613 13.36 69.416 15.164 69.416 17.276C69.416 19.3293 68.9613 21.1187 68.052 22.644C67.1427 24.14 65.7933 25.2987 64.004 26.12C62.244 26.912 60.0587 27.308 57.448 27.308H51.42V21.192H57.448C58.944 21.192 60.1173 20.8547 60.968 20.18C61.8187 19.5053 62.244 18.5373 62.244 17.276C62.244 15.9853 61.8187 15.0027 60.968 14.328C60.1173 13.6533 58.944 13.316 57.448 13.316H51.42ZM73.1141 10.148C73.1141 9.092 73.4954 8.24133 74.2581 7.596C75.0207 6.92133 75.9301 6.584 76.9861 6.584C78.0714 6.584 78.9807 6.92133 79.7141 7.596C80.4767 8.24133 80.8581 9.092 80.8581 10.148C80.8581 11.204 80.4767 12.0693 79.7141 12.744C78.9807 13.4187 78.0714 13.756 76.9861 13.756C75.9301 13.756 75.0207 13.4187 74.2581 12.744C73.4954 12.0693 73.1141 11.204 73.1141 10.148ZM73.7741 17.76H80.1981V38H73.7741V17.76ZM98.6502 17.76H106.042L98.2982 27.616L106.482 38H99.0902L94.8662 32.104L90.7302 38H83.0742L91.3902 27.616L83.5142 17.76H91.1702L94.8662 23.084L98.6502 17.76ZM108.692 10.148C108.692 9.092 109.074 8.24133 109.836 7.596C110.599 6.92133 111.508 6.584 112.564 6.584C113.65 6.584 114.559 6.92133 115.292 7.596C116.055 8.24133 116.436 9.092 116.436 10.148C116.436 11.204 116.055 12.0693 115.292 12.744C114.559 13.4187 113.65 13.756 112.564 13.756C111.508 13.756 110.599 13.4187 109.836 12.744C109.074 12.0693 108.692 11.204 108.692 10.148ZM109.352 17.76H115.776V38H109.352V17.76ZM120.06 27.88C120.06 25.7387 120.559 23.876 121.556 22.292C122.554 20.708 123.932 19.476 125.692 18.596C127.452 17.716 129.432 17.276 131.632 17.276C133.832 17.276 135.798 17.716 137.528 18.596C139.288 19.476 140.667 20.708 141.664 22.292C142.691 23.876 143.204 25.7387 143.204 27.88C143.204 29.992 142.691 31.84 141.664 33.424C140.667 35.008 139.288 36.24 137.528 37.12C135.798 38 133.832 38.44 131.632 38.44C129.432 38.44 127.452 38 125.692 37.12C123.932 36.24 122.554 35.008 121.556 33.424C120.559 31.84 120.06 29.992 120.06 27.88ZM126.88 27.88C126.88 28.936 127.1 29.8453 127.54 30.608C127.98 31.3413 128.552 31.9133 129.256 32.324C129.96 32.7347 130.752 32.94 131.632 32.94C132.483 32.94 133.26 32.7347 133.964 32.324C134.698 31.9133 135.27 31.3413 135.68 30.608C136.12 29.8453 136.34 28.936 136.34 27.88C136.34 26.824 136.12 25.9147 135.68 25.152C135.27 24.3893 134.698 23.8027 133.964 23.392C133.26 22.9813 132.483 22.776 131.632 22.776C130.752 22.776 129.96 22.9813 129.256 23.392C128.552 23.8027 127.98 24.3893 127.54 25.152C127.1 25.9147 126.88 26.824 126.88 27.88Z" fill="black"/>
</svg>
