<svg width="400" height="400" viewBox="0 0 345 350" fill="none" xmlns="http://www.w3.org/2000/svg">
<mask id="path-1-inside-1_32_2183" fill="white">
<path fill-rule="evenodd" clip-rule="evenodd" d="M310.025 73.3535C301.751 62.4449 285.691 63 272 63V63C252.118 63 236 46.8823 236 27V27C236 21.5517 233.462 15.9888 228.307 14.2271C210.803 8.24569 192.03 5 172.5 5C77.2309 5 0 82.2309 0 177.5C0 272.769 77.2309 350 172.5 350C267.769 350 345 272.769 345 177.5C345 138.376 331.975 102.294 310.025 73.3535Z"/>
</mask>
<path fill-rule="evenodd" clip-rule="evenodd" d="M310.025 73.3535C301.751 62.4449 285.691 63 272 63V63C252.118 63 236 46.8823 236 27V27C236 21.5517 233.462 15.9888 228.307 14.2271C210.803 8.24569 192.03 5 172.5 5C77.2309 5 0 82.2309 0 177.5C0 272.769 77.2309 350 172.5 350C267.769 350 345 272.769 345 177.5C345 138.376 331.975 102.294 310.025 73.3535Z" fill="white"/>
<path d="M310.025 73.3535L309.228 73.9578L310.025 73.3535ZM272 62C252.67 62 237 46.33 237 27H235C235 47.4345 251.565 64 272 64V62ZM172.5 6C191.919 6 210.582 9.22707 227.984 15.1734L228.63 13.2808C211.023 7.26431 192.142 4 172.5 4V6ZM1 177.5C1 82.7832 77.7832 6 172.5 6V4C76.6786 4 -1 81.6786 -1 177.5H1ZM172.5 349C77.7832 349 1 272.217 1 177.5H-1C-1 273.321 76.6786 351 172.5 351V349ZM344 177.5C344 272.217 267.217 349 172.5 349V351C268.321 351 346 273.321 346 177.5H344ZM309.228 73.9578C331.051 102.73 344 138.601 344 177.5H346C346 138.15 332.899 101.857 310.821 72.7492L309.228 73.9578ZM237 27C237 21.3213 234.35 15.2354 228.63 13.2808L227.984 15.1734C232.575 16.7423 235 21.7821 235 27H237ZM272 64C278.885 64 286.215 63.8651 292.866 65.07C299.497 66.2713 305.301 68.7809 309.228 73.9578L310.821 72.7492C306.474 67.0175 300.112 64.3503 293.222 63.102C286.352 61.8574 278.806 62 272 62V64Z" fill="black" mask="url(#path-1-inside-1_32_2183)"/>
<circle cx="272" cy="27" r="26.5" fill="white" stroke="black"/>
</svg>
