<svg width="892" height="773" viewBox="0 0 892 773" fill="none" xmlns="http://www.w3.org/2000/svg">
<path d="M29.0786 56.2787L8.2079 12.9022C5.33294 6.92702 9.68713 0 16.3179 0H882.934C889.502 0 893.858 6.8078 891.106 12.7714L870.988 56.3631C857.762 85.0202 858.671 118.208 873.444 146.099C888.281 174.109 889.13 207.454 875.739 236.183L871.122 246.087C857.827 274.61 858.749 307.73 873.611 335.469C888.348 362.975 889.385 395.787 876.415 424.168L871.785 434.301C858.077 464.297 859.346 499.007 875.21 527.921C891.953 558.44 892.387 595.295 876.366 626.199L874.414 629.964C858.956 659.781 857.646 694.95 870.844 725.834L885.643 760.463C888.18 766.401 883.824 773 877.367 773H9.81538C2.8372 773 -1.4863 765.402 2.07788 759.403L21.4664 726.768C39.8971 695.745 41.4277 657.462 25.5888 625.039C10.7656 594.695 11.1412 559.07 26.6501 529.071C41.9899 499.399 42.5614 464.259 28.1945 434.104L23.5067 424.265C10.0165 395.95 11.089 362.852 26.3841 335.47C41.8082 307.857 42.7615 274.448 28.937 246L24.2048 236.262C10.2822 207.613 11.1601 173.983 26.5585 146.099C41.8918 118.333 42.8309 84.8607 29.0786 56.2787Z" fill="red"/>
</svg>
